<?xml version="1.0" encoding="utf-8"?>
<!-- Generator: Adobe Illustrator 23.0.3, SVG Export Plug-In . SVG Version: 6.00 Build 0)  -->
<svg version="1.1" id="Layer_1" xmlns="http://www.w3.org/2000/svg" xmlns:xlink="http://www.w3.org/1999/xlink" x="0px" y="0px"
	 viewBox="0 0 792 612" style="enable-background:new 0 0 792 612;" xml:space="preserve">
<style type="text/css">
	.st0{fill:#009ADD;}
	.st1{fill:#111111;}
</style>
<g>
	<g>
		<g>
			<path class="st0" d="M489.6,297.5c-1.4,1.6-3.9,3.3-8.2,3.3c-6.5,0-11.5-4.6-11.5-11.6c0-7,5-11.6,11.5-11.6c4.2,0,6.7,1.8,8,3
				l-1.3,2.5c-0.9-1.1-3.4-2.7-6.5-2.7c-4.8,0-8.4,3.5-8.4,8.8c0,5.3,3.5,8.8,8.4,8.8c3,0,5.2-1.1,6.7-2.7L489.6,297.5z"/>
			<path class="st0" d="M499.3,300.8c-4.6,0-8.2-3.2-8.2-8c0-4.8,3.6-8.1,8.2-8.1c4.6,0,8.2,3.3,8.2,8.1
				C507.5,297.6,503.9,300.8,499.3,300.8z M499.3,287.2c-3.1,0-5,2.4-5,5.4c0,3.1,1.9,5.5,5,5.5c3.1,0,5-2.4,5-5.5
				C504.3,289.6,502.4,287.2,499.3,287.2z"/>
			<path class="st0" d="M524.2,300.4H521v-8.6c0-2.6-0.5-4.6-3.2-4.6c-2.9,0-4,2.4-4,5.4v7.8h-3.1V285h3.1l0,2.4h0.1
				c0.8-1.5,2.5-2.7,4.7-2.7c4.4,0,5.5,2.9,5.5,6.6V300.4z"/>
			<path class="st0" d="M537.2,299.4c-1.1,0.9-2.5,1.4-4.3,1.4c-2.6,0-4.7-1.1-6-2.8l1.5-1.8c1.2,1.4,3.1,2.2,4.6,2.2
				c1.4,0,3-0.5,3-2.2c0-1.7-2.4-2.2-3.5-2.6c-1-0.4-1.4-0.4-2.1-0.8c-1-0.5-2.4-1.5-2.4-3.7c0-2.9,2.5-4.4,5.2-4.4
				c2.7,0,4.3,1,5.3,2l-1.3,1.9c-0.9-0.9-2.4-1.7-3.9-1.7c-1.5,0-2.5,0.6-2.5,1.9c0,1.3,1.5,1.8,3,2.3c0.8,0.3,1.4,0.5,2.1,0.7
				c0.6,0.3,1.3,0.7,1.8,1.1c0.6,0.6,1.2,1.5,1.2,2.9C538.7,297.4,538.2,298.6,537.2,299.4z"/>
			<path class="st0" d="M555.8,293.5h-11.9c0.2,3.1,2.1,4.9,5,4.9c2.9,0,4.8-1.6,5.1-1.8l1.3,1.8c-0.2,0.2-2.2,2.4-6.8,2.4
				c-4.6,0-7.7-3.2-7.7-8.1c0-4.9,3.5-8,7.8-8c4.3,0,7.3,3.1,7.3,7.4C555.9,292.7,555.8,293.5,555.8,293.5z M553,291.4
				c0-1.7-1.3-4.4-4.5-4.4c-3.1,0-4.5,2.6-4.6,4.4H553z"/>
			<path class="st0" d="M560.7,281.8c-1.2,0-2-0.8-2-1.9c0-1.1,0.8-1.9,2-1.9c1.2,0,2,0.8,2,1.9C562.7,281,561.9,281.8,560.7,281.8z
				 M562.3,300.4h-3.1V285h3.1V300.4z"/>
			<path class="st0" d="M569.9,300.4h-3.1V278h3.1V300.4z"/>
			<path class="st0" d="M595.8,300.4h-3V298h-0.1c-1.3,1.9-3.2,2.8-5.4,2.8c-4.6,0-7.5-3.5-7.5-8.1c0-4.6,2.9-8,7.5-8
				c2.5,0,4.3,1.1,5.4,2.7h0.1V278h3.1V300.4z M587.9,287.2c-3.1,0-4.9,2.3-4.9,5.4c0,3.1,1.8,5.5,4.9,5.5c3.1,0,4.9-2.4,4.9-5.5
				C592.8,289.6,591,287.2,587.9,287.2z"/>
			<path class="st0" d="M614.3,293.5h-11.9c0.2,3.1,2.1,4.9,5,4.9c2.9,0,4.8-1.6,5.1-1.8l1.3,1.8c-0.2,0.2-2.2,2.4-6.8,2.4
				c-4.6,0-7.7-3.2-7.7-8.1c0-4.9,3.5-8,7.8-8c4.3,0,7.3,3.1,7.3,7.4C614.4,292.7,614.3,293.5,614.3,293.5z M611.5,291.4
				c0-1.7-1.3-4.4-4.5-4.4c-3.1,0-4.5,2.6-4.6,4.4H611.5z"/>
			<path class="st0" d="M626.3,299.4c-1.1,0.9-2.5,1.4-4.3,1.4c-2.6,0-4.7-1.1-6-2.8l1.5-1.8c1.2,1.4,3.1,2.2,4.6,2.2
				c1.4,0,3-0.5,3-2.2c0-1.7-2.4-2.2-3.5-2.6c-1-0.4-1.4-0.4-2.1-0.8c-1-0.5-2.4-1.5-2.4-3.7c0-2.9,2.5-4.4,5.2-4.4
				c2.7,0,4.3,1,5.3,2l-1.3,1.9c-0.9-0.9-2.4-1.7-3.9-1.7c-1.5,0-2.5,0.6-2.5,1.9c0,1.3,1.5,1.8,3,2.3c0.8,0.3,1.4,0.5,2.1,0.7
				c0.6,0.3,1.3,0.7,1.8,1.1c0.6,0.6,1.2,1.5,1.2,2.9C627.9,297.4,627.3,298.6,626.3,299.4z"/>
			<path class="st0" d="M649.5,300.4h-3l0-2c-0.6,0.7-2.1,2.3-4.9,2.3c-2.9,0-5.3-1.8-5.3-4.8c0-3,2.5-4.6,6.1-4.7l4.1-0.2v-0.6
				c0-2.3-1.6-3.5-3.8-3.5c-2.2,0-4.1,1-4.7,1.3l-0.9-2.1c1.1-0.7,3.2-1.6,5.8-1.6c2.6,0,4.1,0.7,5.1,1.8c1,1.1,1.7,2.4,1.7,5V300.4
				z M646.4,293l-3.6,0.2c-2.5,0.1-3.5,1.2-3.5,2.7c0,1.5,1.1,2.7,3.2,2.7c2,0,3.4-1.4,3.9-2.2V293z"/>
			<path class="st0" d="M661.9,287.9h-0.1c-0.3-0.1-0.8-0.3-1.7-0.3c-1.4,0-2.2,0.9-2.5,1.3c-0.3,0.4-0.9,1.6-0.9,3.9v7.7h-3.1V285
				h3.1l0,2.4h0.1c0.7-1.8,2.1-2.7,3.8-2.7c1,0,1.6,0.3,1.6,0.3L661.9,287.9z"/>
			<path class="st0" d="M671.9,300.3c0,0-1.2,0.5-2.8,0.5c-1.6,0-2.6-0.6-3.3-1.6c-0.6-1-0.8-2.2-0.8-4.6v-7.1h-2.3V285h2.3v-4.6
				h3.1v4.6h3.7v2.5h-3.7v7c0,1.3,0,2.2,0.4,2.8c0.3,0.5,0.7,0.8,1.6,0.8c0.9,0,1.6-0.4,1.6-0.4L671.9,300.3z"/>
			<path class="st0" d="M683.3,299.4c-1.1,0.9-2.5,1.4-4.3,1.4c-2.6,0-4.7-1.1-6-2.8l1.5-1.8c1.2,1.4,3.1,2.2,4.6,2.2
				c1.4,0,3-0.5,3-2.2c0-1.7-2.4-2.2-3.5-2.6c-1-0.4-1.4-0.4-2.1-0.8c-1-0.5-2.4-1.5-2.4-3.7c0-2.9,2.5-4.4,5.2-4.4
				c2.7,0,4.3,1,5.3,2l-1.3,1.9c-0.9-0.9-2.4-1.7-3.9-1.7c-1.5,0-2.5,0.6-2.5,1.9c0,1.3,1.5,1.8,3,2.3c0.8,0.3,1.4,0.5,2.1,0.7
				c0.6,0.3,1.3,0.7,1.8,1.1c0.6,0.6,1.2,1.5,1.2,2.9C684.9,297.4,684.3,298.6,683.3,299.4z"/>
			<path class="st0" d="M485.8,337h-3v-2.5h-0.1c-1.3,1.9-3.2,2.8-5.4,2.8c-4.6,0-7.5-3.5-7.5-8.1c0-4.6,2.9-8,7.5-8
				c2.5,0,4.3,1.1,5.4,2.7h0.1v-9.4h3.1V337z M477.9,323.8c-3.1,0-4.9,2.3-4.9,5.4c0,3.1,1.8,5.5,4.9,5.5c3.1,0,4.9-2.4,4.9-5.5
				C482.8,326.2,481,323.8,477.9,323.8z"/>
			<path class="st0" d="M503.4,337h-3l0-2.2c-0.8,1.5-2.6,2.6-4.8,2.6c-2.2,0-3.5-0.8-4.3-1.8c-0.8-1-1.1-2.6-1.1-4.8v-9.3h3.1v9.1
				c0,2.1,0.5,4.1,3.2,4.1c2.7,0,3.8-2.3,3.8-4.9v-8.3h3.1V337z"/>
			<path class="st0" d="M532.9,334.1c-1.4,1.6-3.9,3.3-8.2,3.3c-6.5,0-11.5-4.6-11.5-11.6c0-7,5-11.6,11.5-11.6c4.2,0,6.7,1.8,8,3
				l-1.3,2.5c-0.9-1.1-3.4-2.7-6.5-2.7c-4.9,0-8.4,3.5-8.4,8.8c0,5.3,3.5,8.8,8.4,8.8c3,0,5.2-1.1,6.7-2.7L532.9,334.1z"/>
			<path class="st0" d="M547.8,337h-3l0-2c-0.6,0.7-2.1,2.3-4.9,2.3c-2.9,0-5.3-1.8-5.3-4.8c0-3,2.5-4.6,6.1-4.7l4.1-0.2v-0.6
				c0-2.3-1.6-3.5-3.8-3.5c-2.2,0-4.1,1-4.7,1.3l-0.9-2.1c1.1-0.6,3.2-1.6,5.8-1.6c2.6,0,4.1,0.7,5.1,1.8c1,1.1,1.7,2.4,1.7,5V337z
				 M544.7,329.6l-3.6,0.2c-2.5,0.1-3.5,1.2-3.5,2.7c0,1.5,1.1,2.7,3.2,2.7c2,0,3.4-1.4,3.9-2.2V329.6z"/>
			<path class="st0" d="M565.3,337h-3.1v-8.6c0-2.6-0.5-4.6-3.2-4.6c-2.9,0-4,2.4-4,5.4v7.8h-3.1v-15.5h3.1l0,2.4h0.1
				c0.8-1.5,2.5-2.7,4.7-2.7c4.4,0,5.5,2.9,5.5,6.6V337z"/>
			<path class="st0" d="M581.4,337h-3l0-2c-0.6,0.7-2.1,2.3-4.9,2.3c-2.9,0-5.3-1.8-5.3-4.8c0-3,2.5-4.6,6.1-4.7l4.1-0.2v-0.6
				c0-2.3-1.6-3.5-3.8-3.5s-4.1,1-4.7,1.3l-0.9-2.1c1.1-0.6,3.2-1.6,5.8-1.6c2.6,0,4.1,0.7,5.1,1.8c1,1.1,1.7,2.4,1.7,5V337z
				 M578.3,329.6l-3.6,0.2c-2.5,0.1-3.5,1.2-3.5,2.7c0,1.5,1.1,2.7,3.2,2.7c2,0,3.4-1.4,3.9-2.2V329.6z"/>
			<path class="st0" d="M600.4,337h-3v-2.5h-0.1c-1.3,1.9-3.2,2.8-5.4,2.8c-4.6,0-7.5-3.5-7.5-8.1c0-4.6,2.9-8,7.5-8
				c2.5,0,4.3,1.1,5.4,2.7h0.1v-9.4h3.1V337z M592.5,323.8c-3.1,0-4.9,2.3-4.9,5.4c0,3.1,1.8,5.5,4.9,5.5c3.1,0,4.9-2.4,4.9-5.5
				C597.4,326.2,595.6,323.8,592.5,323.8z"/>
			<path class="st0" d="M616.9,337h-3l0-2c-0.6,0.7-2.1,2.3-4.9,2.3c-2.9,0-5.3-1.8-5.3-4.8c0-3,2.5-4.6,6-4.7l4.1-0.2v-0.6
				c0-2.3-1.6-3.5-3.8-3.5c-2.2,0-4.1,1-4.7,1.3l-0.9-2.1c1.1-0.6,3.2-1.6,5.8-1.6s4.1,0.7,5.1,1.8c1,1.1,1.7,2.4,1.7,5V337z
				 M613.8,329.6l-3.6,0.2c-2.5,0.1-3.5,1.2-3.5,2.7c0,1.5,1.1,2.7,3.2,2.7c2,0,3.4-1.4,3.9-2.2V329.6z"/>
		</g>
	</g>
	<g>
		<path class="st0" d="M247.3,297.5c-1.4,1.6-3.9,3.3-8.2,3.3c-6.5,0-11.5-4.6-11.5-11.6c0-7,5-11.6,11.5-11.6c4.2,0,6.7,1.8,8,3
			l-1.3,2.5c-0.9-1.1-3.4-2.7-6.5-2.7c-4.8,0-8.4,3.5-8.4,8.8c0,5.3,3.5,8.8,8.4,8.8c3,0,5.2-1.1,6.7-2.7L247.3,297.5z"/>
		<path class="st0" d="M262.2,300.4h-3l0-2c-0.6,0.7-2.1,2.3-4.9,2.3c-2.9,0-5.3-1.8-5.3-4.8c0-3,2.5-4.6,6.1-4.7l4.1-0.2v-0.6
			c0-2.3-1.6-3.5-3.8-3.5c-2.2,0-4.1,1-4.7,1.3l-0.9-2.1c1.1-0.7,3.2-1.6,5.8-1.6c2.6,0,4.1,0.7,5.1,1.8c1,1.1,1.7,2.4,1.7,5V300.4z
			 M259.1,293l-3.6,0.2c-2.5,0.1-3.5,1.2-3.5,2.7c0,1.5,1.1,2.7,3.2,2.7c2,0,3.4-1.4,3.9-2.2V293z"/>
		<path class="st0" d="M279.6,300.4h-3.1v-8.6c0-2.6-0.5-4.6-3.2-4.6c-2.9,0-4,2.4-4,5.4v7.8h-3.1V285h3.1l0,2.4h0.1
			c0.8-1.5,2.5-2.7,4.7-2.7c4.4,0,5.5,2.9,5.5,6.6V300.4z"/>
		<path class="st0" d="M295.8,300.4h-3l0-2c-0.6,0.7-2.1,2.3-4.9,2.3c-2.9,0-5.3-1.8-5.3-4.8c0-3,2.5-4.6,6.1-4.7l4.1-0.2v-0.6
			c0-2.3-1.6-3.5-3.8-3.5c-2.2,0-4.1,1-4.7,1.3l-0.9-2.1c1.1-0.7,3.2-1.6,5.8-1.6s4.1,0.7,5.1,1.8c1,1.1,1.7,2.4,1.7,5V300.4z
			 M292.7,293l-3.6,0.2c-2.5,0.1-3.5,1.2-3.5,2.7c0,1.5,1.1,2.7,3.2,2.7c2,0,3.4-1.4,3.9-2.2V293z"/>
		<path class="st0" d="M314.8,300.4h-3V298h-0.1c-1.3,1.9-3.2,2.8-5.4,2.8c-4.6,0-7.5-3.5-7.5-8.1c0-4.6,2.9-8,7.5-8
			c2.5,0,4.3,1.1,5.4,2.7h0.1V278h3.1V300.4z M306.9,287.2c-3.1,0-4.9,2.3-4.9,5.4c0,3.1,1.8,5.5,4.9,5.5c3.1,0,4.9-2.4,4.9-5.5
			C311.8,289.6,310,287.2,306.9,287.2z"/>
		<path class="st0" d="M331.2,300.4h-3l0-2c-0.6,0.7-2.1,2.3-4.9,2.3c-2.9,0-5.3-1.8-5.3-4.8c0-3,2.5-4.6,6.1-4.7l4.1-0.2v-0.6
			c0-2.3-1.6-3.5-3.8-3.5c-2.2,0-4.1,1-4.7,1.3l-0.9-2.1c1.1-0.7,3.2-1.6,5.8-1.6c2.6,0,4.1,0.7,5.1,1.8c1,1.1,1.7,2.4,1.7,5V300.4z
			 M328.1,293l-3.6,0.2c-2.5,0.1-3.5,1.2-3.5,2.7c0,1.5,1.1,2.7,3.2,2.7c2,0,3.4-1.4,3.9-2.2V293z"/>
		<path class="st0" d="M360.5,297.5c-1.4,1.6-3.9,3.3-8.2,3.3c-6.5,0-11.5-4.6-11.5-11.6c0-7,5-11.6,11.5-11.6c4.2,0,6.7,1.8,8,3
			l-1.3,2.5c-0.9-1.1-3.4-2.7-6.5-2.7c-4.8,0-8.4,3.5-8.4,8.8c0,5.3,3.5,8.8,8.4,8.8c3,0,5.2-1.1,6.7-2.7L360.5,297.5z"/>
		<path class="st0" d="M370.2,300.8c-4.6,0-8.2-3.2-8.2-8c0-4.8,3.6-8.1,8.2-8.1c4.6,0,8.2,3.3,8.2,8.1
			C378.4,297.6,374.8,300.8,370.2,300.8z M370.2,287.2c-3.1,0-5,2.4-5,5.4c0,3.1,1.9,5.5,5,5.5c3.1,0,5-2.4,5-5.5
			C375.2,289.6,373.3,287.2,370.2,287.2z"/>
		<path class="st0" d="M394.7,300.4h-3l0-2.2c-0.8,1.5-2.6,2.6-4.8,2.6c-2.2,0-3.5-0.7-4.3-1.8c-0.8-1-1.1-2.6-1.1-4.8V285h3.1v9.1
			c0,2.1,0.5,4.1,3.2,4.1c2.7,0,3.8-2.3,3.8-4.9V285h3.1V300.4z"/>
		<path class="st0" d="M412.5,300.4h-3.1v-8.6c0-2.6-0.5-4.6-3.2-4.6c-2.9,0-4,2.4-4,5.4v7.8H399V285h3.1l0,2.4h0.1
			c0.8-1.5,2.5-2.7,4.7-2.7c4.4,0,5.5,2.9,5.5,6.6V300.4z"/>
		<path class="st0" d="M429.6,298.5c-0.5,0.5-2,2.3-6.2,2.3c-4.2,0-7.8-3.1-7.8-8.1c0-5,3.8-8,7.9-8c4.1,0,5.8,2,6,2.2l-1.1,2.3
			c-0.5-0.5-1.9-1.9-4.6-1.9c-2.7,0-5,2.1-5,5.3c0,3.3,2,5.5,5,5.5c3,0,4.7-2,4.7-2L429.6,298.5z"/>
		<path class="st0" d="M433.8,281.8c-1.2,0-2-0.8-2-1.9c0-1.1,0.8-1.9,2-1.9c1.2,0,2,0.8,2,1.9C435.8,281,435,281.8,433.8,281.8z
			 M435.4,300.4h-3.1V285h3.1V300.4z"/>
		<path class="st0" d="M443,300.4h-3.1V278h3.1V300.4z"/>
		<path class="st0" d="M236.4,316.9c0,0-0.9-0.3-1.8-0.3c-2,0-2.4,1.5-2.4,3.3v1.7h3.7v2.5h-3.7V337h-3.1v-12.9h-2.2v-2.5h2.2v-1.6
			c0-2,0.4-3.3,1-4.1c0.7-0.8,1.9-1.7,3.7-1.7c1.8,0,2.7,0.4,2.7,0.4L236.4,316.9z"/>
		<path class="st0" d="M244.6,337.4c-4.6,0-8.2-3.2-8.2-8c0-4.8,3.6-8.1,8.2-8.1c4.6,0,8.2,3.3,8.2,8.1
			C252.7,334.2,249.2,337.4,244.6,337.4z M244.6,323.8c-3.1,0-5,2.4-5,5.4c0,3.1,1.9,5.5,5,5.5c3.1,0,5-2.4,5-5.5
			C249.6,326.2,247.7,323.8,244.6,323.8z"/>
		<path class="st0" d="M264.4,324.5h-0.1c-0.3-0.1-0.8-0.3-1.7-0.3c-1.4,0-2.2,0.9-2.5,1.3c-0.3,0.4-0.9,1.6-0.9,3.9v7.7H256v-15.5
			h3.1l0,2.4h0.1c0.7-1.8,2.1-2.7,3.8-2.7c1,0,1.6,0.3,1.6,0.3L264.4,324.5z"/>
		<path class="st0" d="M280.9,336.9c0,0-1.2,0.5-2.8,0.5c-1.6,0-2.6-0.6-3.3-1.6c-0.6-1-0.8-2.2-0.8-4.6v-7.1h-2.3v-2.5h2.3V317h3.1
			v4.6h3.7v2.5h-3.7v7c0,1.3,0,2.2,0.4,2.8c0.3,0.5,0.7,0.8,1.6,0.8c0.9,0,1.6-0.4,1.6-0.4L280.9,336.9z"/>
		<path class="st0" d="M297.1,337H294v-8.8c0-2.2-0.4-4.4-3.2-4.4c-2.8,0-4,2.4-4,5.5v7.6h-3.1v-22.4h3.1v9.4h0.1
			c0.8-1.5,2.5-2.7,4.8-2.7c4.5,0,5.5,2.9,5.5,6.5V337z"/>
		<path class="st0" d="M315.3,330.1h-11.9c0.2,3.1,2.1,4.9,5,4.9c2.9,0,4.8-1.6,5.1-1.8l1.3,1.8c-0.2,0.2-2.2,2.4-6.8,2.4
			c-4.6,0-7.7-3.2-7.7-8.1c0-4.9,3.5-8,7.8-8c4.3,0,7.3,3.1,7.3,7.4C315.4,329.3,315.3,330.1,315.3,330.1z M312.5,328
			c0-1.7-1.3-4.4-4.5-4.4c-3.1,0-4.5,2.6-4.6,4.4H312.5z"/>
		<path class="st0" d="M344,337h-3.5l-2.3-5.9h-9.6l-2.3,5.9h-3.3l9.1-22.5h2.8L344,337z M337.3,328.6l-3.9-10.1l-3.9,10.1H337.3z"
			/>
		<path class="st0" d="M354.6,324.5h-0.1c-0.3-0.1-0.8-0.3-1.7-0.3c-1.4,0-2.2,0.9-2.5,1.3c-0.3,0.4-0.9,1.6-0.9,3.9v7.7h-3.1v-15.5
			h3.1l0,2.4h0.1c0.7-1.8,2.1-2.7,3.8-2.7c1,0,1.6,0.3,1.6,0.3L354.6,324.5z"/>
		<path class="st0" d="M364.6,336.9c0,0-1.2,0.5-2.8,0.5c-1.6,0-2.6-0.6-3.3-1.6c-0.6-1-0.8-2.2-0.8-4.6v-7.1h-2.3v-2.5h2.3V317h3.1
			v4.6h3.7v2.5h-3.7v7c0,1.3,0,2.2,0.4,2.8c0.3,0.5,0.7,0.8,1.6,0.8c0.9,0,1.6-0.4,1.6-0.4L364.6,336.9z"/>
		<path class="st0" d="M376,336c-1.1,0.9-2.5,1.4-4.3,1.4c-2.6,0-4.7-1.1-6-2.8l1.5-1.8c1.2,1.4,3.1,2.2,4.6,2.2c1.4,0,3-0.5,3-2.2
			c0-1.7-2.4-2.2-3.5-2.6c-1-0.4-1.4-0.4-2.1-0.8c-1-0.5-2.4-1.5-2.4-3.7c0-2.9,2.5-4.4,5.2-4.4c2.7,0,4.3,1,5.3,2l-1.3,1.9
			c-0.9-0.9-2.4-1.7-3.9-1.7c-1.5,0-2.5,0.6-2.5,1.9c0,1.3,1.5,1.8,3,2.3c0.8,0.3,1.4,0.5,2.1,0.7c0.6,0.3,1.3,0.7,1.8,1.1
			c0.6,0.6,1.2,1.5,1.2,2.9C377.6,334,377,335.2,376,336z"/>
	</g>
</g>
<g>
	<path class="st1" d="M202,337.9c-5-4.9-19.5-9.1-34.4-10c-1.1,0.8-1.8,1.7-2.2,2.6c12.5,0.6,24.6,4.1,29,8.1
		c4,3.2,3.4,7.6-1.3,10.6c-6.8,4.8-20.9,7-36.2,6.9c-15.3,0.1-29.4-2.1-36.2-6.9c-4.7-3-5.3-7.4-1.2-10.6c4.5-4,16.5-7.6,29-8.1
		c-0.4-0.9-1.2-1.7-2.2-2.6c-14.9,0.9-29.3,5.1-34.4,10c-6.8,6.2-1.4,13.2,13.5,17.6c8.3,2.5,20,3.9,31.5,3.9
		c11.5,0,23.2-1.4,31.5-3.9C203.3,351.1,208.8,344.1,202,337.9z"/>
	<path class="st1" d="M194,287.3c-0.3-4.1-3.6-7.3-7.6-8.8c1.6-2.3,1.9-4.8,0.7-7.6c-1.9-4.4-7-5.8-10.1-5.6
		c-4.3,0.3-6.9,2.1-11.5,5.6c-1.1-0.8-3.2-2.4-4.2-3.2h0c0,0,3.1-2.6,6.4-4.3c3.1-1.7,5.2-1.9,5.2-1.9s-5.5-7.5-16.1-7.6
		c0,0,0,0,0,0c0,0,0,0,0,0s0,0,0,0c0,0,0,0,0,0c-10.6,0.1-16.1,7.6-16.1,7.6s2.1,0.2,5.2,1.9c3.3,1.7,6.4,4.3,6.4,4.3
		c-0.9,0.7-3.1,2.3-4.2,3.2c-4.6-3.5-7.2-5.3-11.5-5.6c-3.1-0.2-8.2,1.2-10.1,5.6c-1.2,2.8-0.9,5.3,0.7,7.6c-4,1.5-7.3,4.7-7.6,8.8
		c-0.3,4.1,2.1,7.9,6.4,9.7c-1.2,1.5-1.8,3.3-1.8,4.8c0,4,3.6,9.4,11.2,9.2c5.7-0.2,7.9-1.9,12.4-5.4c0.3,0.4,3.7,5.9,3.7,15.4
		c0,0,0.5,7.3-3.1,25.1h0c0,1,3.7,1.7,8.3,1.7c4.6,0,8.3-0.8,8.3-1.7h0c-3.6-17.8-3.1-25.1-3.1-25.1c0-9.6,3.5-15,3.7-15.4
		c4.5,3.5,6.7,5.2,12.4,5.4c7.6,0.2,11.2-5.2,11.2-9.2c0-1.5-0.6-3.2-1.8-4.8C191.9,295.2,194.3,291.4,194,287.3z M176.9,271
		c4-0.2,5.5,2.2,5.2,3.8c-0.4,2-2.9,3.5-5.2,3.2c-2.3-0.2-4-1.4-6.7-3.6C172,273,174.3,271.2,176.9,271z M165.7,277.9
		c1.3,1,2.5,1.9,3.5,2.6c0.5,0.4,1,0.8,1.5,1.1c-0.7,0.5-1.2,0.9-2,1.5c-0.6,0.4-1.4,1.1-2.3,1.7c-1.4-1-3-2.3-4.9-3.7
		C162.8,280.1,164.1,279,165.7,277.9z M161.1,274.4c-1.3,1-2.5,1.9-4.1,3.2l0,0l0,0c-1.6-1.2-2.8-2.2-4.1-3.2c1-0.8,2.3-1.8,4-3.1
		l0.1-0.1l0.1,0.1C158.8,272.6,160,273.6,161.1,274.4z M151.2,260.5c0,0,1.4-1.6,5.6-1.6c4.2,0,5.6,1.6,5.6,1.6s-1.1,0.6-2.6,1.7
		c-2,1.4-2.9,2.2-3,2.2c-0.1-0.1-1-0.9-3-2.2C152.3,261.1,151.2,260.5,151.2,260.5z M156.7,284.7l0.2-0.2l0.2,0.2
		c1.5,1.2,3.1,2.3,4.8,3.6c-1,0.7-1.8,1.3-2.5,1.9c-0.7,0.5-1.5,1.1-2.3,1.7l-0.1,0.1l-0.1-0.1c-0.8-0.6-1.6-1.2-2.3-1.7
		c-0.7-0.5-1.5-1.2-2.5-1.9C153.6,287,155.2,285.9,156.7,284.7z M148.1,277.9c1.5,1.1,2.9,2.2,4.2,3.2c-1.9,1.5-3.6,2.7-5,3.7
		c-0.8-0.6-1.7-1.3-2.3-1.7c-0.8-0.6-1.3-1-2-1.5c0.5-0.3,1-0.7,1.5-1.1C145.6,279.8,146.9,278.8,148.1,277.9z M136.9,271
		c2.6,0.1,4.9,2,6.7,3.4c-2.8,2.2-4.5,3.4-6.7,3.6c-2.3,0.3-4.8-1.2-5.2-3.2C131.4,273.2,132.9,270.8,136.9,271z M125.3,288.4
		c-0.1-2.1,1.4-5.1,7-5.4c3.8-0.2,6.4,2,10.6,5.1c-3.3,2.5-5.9,4.7-10.7,5C128.4,293.4,125.4,290.6,125.3,288.4z M136,305.7
		c-4,0.2-6.4-1.8-6.2-4c0.1-1.7,3.9-5.7,11.8-2.2c1.1,0.5,2,1.1,2.9,1.8C140.6,304.3,139.1,305.6,136,305.7z M148.8,298.1
		c-1.5-1.4-3.1-2.6-5.2-3.6c1.3-0.8,2.5-1.8,3.8-2.8c0.1-0.1,0.1-0.1,0.1-0.1c1.8,1.3,3.5,2.6,5,3.7
		C151.2,296.3,150,297.2,148.8,298.1z M157,313.1l-0.1,0.5l-0.1-0.5c-1-4.1-2.2-7.7-4-10.4c1.4-1.1,2.7-2.1,4.1-3.1
		c1.3,1,2.6,2,4.1,3.1C159.3,305.4,158,309,157,313.1z M165,298.1c-1.2-0.9-2.4-1.8-3.7-2.8c1.5-1.1,3.2-2.4,4.9-3.7
		c0.1,0,0.1,0,0.1,0.1c1.3,1.1,2.5,2,3.8,2.8C168.1,295.5,166.5,296.7,165,298.1z M177.8,305.7c-3.1-0.1-4.5-1.4-8.5-4.3
		c0.9-0.8,1.8-1.3,2.9-1.8c7.9-3.6,11.7,0.4,11.8,2.2C184.2,303.9,181.8,305.9,177.8,305.7z M181.6,293.2c-4.8-0.3-7.3-2.5-10.7-5
		c4.1-3.1,6.8-5.3,10.6-5.1c5.6,0.3,7.1,3.3,7,5.4C188.4,290.6,185.4,293.4,181.6,293.2z"/>
</g>
</svg>
